<mxfile host="app.diagrams.net" agent="Mozilla/5.0 (Windows NT 10.0; Win64; x64; rv:135.0) Gecko/20100101 Firefox/135.0" version="26.0.16">
  <diagram name="Page-1" id="3mcHxA5tAk4q_fHcIRja">
    <mxGraphModel dx="1050" dy="1735" grid="1" gridSize="10" guides="1" tooltips="1" connect="1" arrows="1" fold="1" page="1" pageScale="1" pageWidth="827" pageHeight="1169" math="0" shadow="0">
      <root>
        <mxCell id="0" />
        <mxCell id="1" parent="0" />
        <mxCell id="WurOz906_WQ2NloFtxnk-2" value="Scanne QR Code&amp;nbsp;" style="html=1;verticalAlign=bottom;endArrow=block;curved=0;rounded=0;fontStyle=1" edge="1" parent="1">
          <mxGeometry x="-0.1398" width="80" relative="1" as="geometry">
            <mxPoint x="201.5" y="118" as="sourcePoint" />
            <mxPoint x="351.5" y="118" as="targetPoint" />
            <mxPoint as="offset" />
          </mxGeometry>
        </mxCell>
        <mxCell id="WurOz906_WQ2NloFtxnk-3" value="&lt;div&gt;Déchiffre et envoye&lt;/div&gt;&lt;div&gt;&amp;nbsp;les données du QR Code&lt;/div&gt;" style="html=1;verticalAlign=bottom;endArrow=block;curved=0;rounded=0;fontStyle=1" edge="1" parent="1">
          <mxGeometry x="-0.0251" width="80" relative="1" as="geometry">
            <mxPoint x="352" y="159" as="sourcePoint" />
            <mxPoint x="491.5" y="159" as="targetPoint" />
            <mxPoint as="offset" />
          </mxGeometry>
        </mxCell>
        <mxCell id="WurOz906_WQ2NloFtxnk-4" value="Affiche demande de confirmation de la demande" style="html=1;verticalAlign=bottom;endArrow=block;curved=0;rounded=0;fontStyle=1" edge="1" parent="1">
          <mxGeometry width="80" relative="1" as="geometry">
            <mxPoint x="491.5" y="195" as="sourcePoint" />
            <mxPoint x="201.5" y="195" as="targetPoint" />
            <mxPoint as="offset" />
          </mxGeometry>
        </mxCell>
        <mxCell id="WurOz906_WQ2NloFtxnk-5" value="Valide le paiement" style="html=1;verticalAlign=bottom;endArrow=block;curved=0;rounded=0;fontStyle=1" edge="1" parent="1">
          <mxGeometry x="-0.1398" width="80" relative="1" as="geometry">
            <mxPoint x="202.5" y="228" as="sourcePoint" />
            <mxPoint x="630" y="228" as="targetPoint" />
            <mxPoint as="offset" />
          </mxGeometry>
        </mxCell>
        <mxCell id="WurOz906_WQ2NloFtxnk-6" value="Confirme le paiement" style="html=1;verticalAlign=bottom;endArrow=block;curved=0;rounded=0;fontStyle=1" edge="1" parent="1">
          <mxGeometry width="80" relative="1" as="geometry">
            <mxPoint x="630" y="265" as="sourcePoint" />
            <mxPoint x="350" y="266" as="targetPoint" />
            <mxPoint as="offset" />
          </mxGeometry>
        </mxCell>
        <mxCell id="WurOz906_WQ2NloFtxnk-7" value="Notifie le paiement" style="html=1;verticalAlign=bottom;endArrow=block;curved=0;rounded=0;fontStyle=1" edge="1" parent="1">
          <mxGeometry x="-0.1398" width="80" relative="1" as="geometry">
            <mxPoint x="630.5" y="291" as="sourcePoint" />
            <mxPoint x="770" y="291" as="targetPoint" />
            <mxPoint as="offset" />
          </mxGeometry>
        </mxCell>
        <mxCell id="WurOz906_WQ2NloFtxnk-8" value="Notifie le paiement" style="html=1;verticalAlign=bottom;endArrow=block;curved=0;rounded=0;fontStyle=1" edge="1" parent="1">
          <mxGeometry width="80" relative="1" as="geometry">
            <mxPoint x="770" y="330" as="sourcePoint" />
            <mxPoint x="200" y="330" as="targetPoint" />
            <mxPoint as="offset" />
          </mxGeometry>
        </mxCell>
        <mxCell id="WurOz906_WQ2NloFtxnk-9" value="alt [solde insuffisant]" style="shape=umlFrame;whiteSpace=wrap;html=1;pointerEvents=0;width=80;height=30;fontStyle=1;fontColor=light-dark(#8000ff, #ededed);" vertex="1" parent="1">
          <mxGeometry x="114" y="354" width="576" height="80" as="geometry" />
        </mxCell>
        <mxCell id="WurOz906_WQ2NloFtxnk-10" value="Notifie échec du paiement" style="html=1;verticalAlign=bottom;endArrow=block;curved=0;rounded=0;fontStyle=1" edge="1" parent="1">
          <mxGeometry width="80" relative="1" as="geometry">
            <mxPoint x="630" y="399" as="sourcePoint" />
            <mxPoint x="202" y="399" as="targetPoint" />
            <mxPoint as="offset" />
          </mxGeometry>
        </mxCell>
        <mxCell id="WurOz906_WQ2NloFtxnk-11" value="alt [QR Code invalide]" style="shape=umlFrame;whiteSpace=wrap;html=1;pointerEvents=0;width=80;height=30;fontStyle=1;fontColor=light-dark(#8000ff, #ededed);" vertex="1" parent="1">
          <mxGeometry x="252" y="441" width="438" height="80" as="geometry" />
        </mxCell>
        <mxCell id="WurOz906_WQ2NloFtxnk-12" value="Signale QR Code invalide" style="html=1;verticalAlign=bottom;endArrow=block;curved=0;rounded=0;fontStyle=1" edge="1" parent="1">
          <mxGeometry x="0.0145" width="80" relative="1" as="geometry">
            <mxPoint x="490" y="480" as="sourcePoint" />
            <mxPoint x="352" y="480" as="targetPoint" />
            <mxPoint as="offset" />
          </mxGeometry>
        </mxCell>
        <mxCell id="WurOz906_WQ2NloFtxnk-13" value="Employé " style="shape=umlActor;verticalLabelPosition=bottom;verticalAlign=top;html=1;fillColor=#dae8fc;strokeColor=#6c8ebf;strokeWidth=3;fontStyle=1;fontColor=light-dark(#0000ff, #ededed);" vertex="1" parent="1">
          <mxGeometry x="192" y="6" width="30" height="60" as="geometry" />
        </mxCell>
        <mxCell id="WurOz906_WQ2NloFtxnk-14" value="Commerçant" style="shape=umlActor;verticalLabelPosition=bottom;verticalAlign=top;html=1;fillColor=#dae8fc;strokeColor=#6c8ebf;strokeWidth=3;fontStyle=1;fontColor=light-dark(#0000ff, #ededed);" vertex="1" parent="1">
          <mxGeometry x="332" y="7" width="30" height="60" as="geometry" />
        </mxCell>
        <mxCell id="WurOz906_WQ2NloFtxnk-15" value="&lt;div&gt;Système de&lt;/div&gt;&lt;div&gt;&amp;nbsp;paiement&lt;/div&gt;" style="shape=umlActor;verticalLabelPosition=bottom;verticalAlign=top;html=1;fillColor=#dae8fc;strokeColor=#6c8ebf;fontStyle=1;strokeWidth=3;fontColor=light-dark(#0000ff, #ededed);" vertex="1" parent="1">
          <mxGeometry x="610" width="30" height="60" as="geometry" />
        </mxCell>
        <mxCell id="WurOz906_WQ2NloFtxnk-16" value="&lt;div&gt;Service&amp;nbsp;&lt;/div&gt;&lt;div&gt;Authentification&lt;/div&gt;" style="shape=umlActor;verticalLabelPosition=bottom;verticalAlign=top;html=1;fillColor=#dae8fc;strokeColor=#6c8ebf;strokeWidth=3;fontStyle=1;fontColor=light-dark(#0000ff, #ededed);" vertex="1" parent="1">
          <mxGeometry x="480" y="4" width="30" height="60" as="geometry" />
        </mxCell>
        <mxCell id="WurOz906_WQ2NloFtxnk-17" value="" style="endArrow=none;dashed=1;html=1;rounded=0;fontStyle=1" edge="1" parent="1">
          <mxGeometry width="50" height="50" relative="1" as="geometry">
            <mxPoint x="492" y="520" as="sourcePoint" />
            <mxPoint x="492" y="98" as="targetPoint" />
          </mxGeometry>
        </mxCell>
        <mxCell id="WurOz906_WQ2NloFtxnk-18" value="" style="endArrow=none;dashed=1;html=1;rounded=0;fontStyle=1" edge="1" parent="1">
          <mxGeometry width="50" height="50" relative="1" as="geometry">
            <mxPoint x="632" y="520" as="sourcePoint" />
            <mxPoint x="632" y="98" as="targetPoint" />
          </mxGeometry>
        </mxCell>
        <mxCell id="WurOz906_WQ2NloFtxnk-19" value="" style="endArrow=none;dashed=1;html=1;rounded=0;fontStyle=1" edge="1" parent="1">
          <mxGeometry width="50" height="50" relative="1" as="geometry">
            <mxPoint x="350" y="520" as="sourcePoint" />
            <mxPoint x="351.5" y="98" as="targetPoint" />
          </mxGeometry>
        </mxCell>
        <mxCell id="WurOz906_WQ2NloFtxnk-20" value="" style="endArrow=none;dashed=1;html=1;rounded=0;fontStyle=1" edge="1" parent="1">
          <mxGeometry width="50" height="50" relative="1" as="geometry">
            <mxPoint x="202" y="530" as="sourcePoint" />
            <mxPoint x="202" y="98" as="targetPoint" />
          </mxGeometry>
        </mxCell>
        <mxCell id="WurOz906_WQ2NloFtxnk-21" value="" style="endArrow=none;dashed=1;html=1;rounded=0;fontStyle=1" edge="1" parent="1">
          <mxGeometry width="50" height="50" relative="1" as="geometry">
            <mxPoint x="770" y="521" as="sourcePoint" />
            <mxPoint x="770" y="99" as="targetPoint" />
          </mxGeometry>
        </mxCell>
        <mxCell id="WurOz906_WQ2NloFtxnk-22" value="&lt;div&gt;Service de&amp;nbsp;&lt;/div&gt;&lt;div&gt;notification&lt;/div&gt;" style="shape=umlActor;verticalLabelPosition=bottom;verticalAlign=top;html=1;fillColor=#dae8fc;strokeColor=#6c8ebf;strokeWidth=3;fontStyle=1;fontColor=light-dark(#0000ff, #ededed);" vertex="1" parent="1">
          <mxGeometry x="750" y="4" width="30" height="60" as="geometry" />
        </mxCell>
      </root>
    </mxGraphModel>
  </diagram>
</mxfile>
